<svg xmlns="http://www.w3.org/2000/svg" width="128.667" height="55.632" viewBox="0 0 128.667 55.632"><path d="M23.836,16.91a38.889,38.889,0,0,0,2.942-3.223,1.5,1.5,0,0,0,.384-1.32.981.981,0,0,0-.567-.84,2.4,2.4,0,0,0-1.35-.042,1.988,1.988,0,0,1-1.175-.042.989.989,0,0,1-.49-1.4A5.97,5.97,0,0,1,25.1,8.554a6.529,6.529,0,0,0,1.823-1.916c.44-.854,0-1.206-.313-1.368a1.955,1.955,0,0,0-.777-.141,3.241,3.241,0,0,1-.57-.108c-.359-.184-.4-.532-.163-.973A7.718,7.718,0,0,1,25.57,3.4a8.509,8.509,0,0,0,.609-.949A1.4,1.4,0,0,0,25.7.743c-.647-.331-1.627.366-2.454.944-.705.454-1.274.845-1.622.659a.763.763,0,0,1-.369-.631c-.051-.213-.051-.4-.267-.514-.518-.268-1.34.358-2,1.42A14.139,14.139,0,0,0,18.2,4.169a9.353,9.353,0,0,1-.649,1.119c-.574.907-.842,1.124-1.287.859a2.979,2.979,0,0,1-.9-.971,2.91,2.91,0,0,0-.581-.588,1.357,1.357,0,0,0-1.743.622,8.871,8.871,0,0,0-1.377,5.253,3.683,3.683,0,0,1-.224,1.521c-.181.245-.524.238-.925-.064A5.544,5.544,0,0,1,10,11.4a3.558,3.558,0,0,0-.489-.556c-.22-.172-.988-.456-1.316-.052-.513.617-.194,3.292.125,4.528A19.976,19.976,0,0,0,10.511,20.4c.553.894.865,1.4.661,1.689-.223.294-.565.145-.882-.042-.413-.274-.855-.5-1.215-.029-.672.852,1.211,3.588,3.438,5.228a20.467,20.467,0,0,0,3.429,2.012c1.184.545,2.3,1.057,3.32,1.592-6.246-15.1,2.479-24.322,2.2-24.514.313.066-8.192,10.319-.264,25.084A18.159,18.159,0,0,0,23.8,34.559c0-.006.007-.014.011-.019-.477-.731-2.687-4.926.188-10.945.593-1.288,1.236-2.43,1-3.041-.288-.754-1.031-.546-1.8-.3a1.805,1.805,0,0,1-1.312.15.783.783,0,0,1-.383-.457c-.051-.474.454-1.027.8-1.417.194-.218.8-.852,1.537-1.619" fill="#d20a11"/><path d="M35.205,21.232c2.4,0,4.113-1.153,4.068-3.781-.026-1.44-1-1.984-3.144-1.984H32.894l-.925,5.765Zm-1.4,9.709c2.659,0,4.592-1.219,4.541-4.134-.027-1.569-1.033-2.242-3.435-2.242H31.45L30.408,30.94ZM26.53,34.495c-.545,0-.773-.225-.686-.769l3.349-21.048a.746.746,0,0,1,.852-.739h6.5c4.325,0,6.946,1.474,7,4.678a5.983,5.983,0,0,1-3.676,5.959c1.482.449,2.6,1.889,2.637,4.2.088,5.063-3.421,7.719-8.708,7.719H26.53Z" fill="#1c1c1b"/><path d="M51.174,14.8c-.087.512-.275.736-.755.736H47.76c-.481,0-.677-.224-.622-.736l.348-2.115c.087-.48.308-.7.789-.7H50.9c.512,0,.708.224.62.7ZM48.109,33.761c-.087.479-.275.7-.756.7H44.79c-.481,0-.708-.224-.622-.7L46.68,18c.088-.481.308-.7.789-.7h2.563c.48,0,.676.223.589.7Z" fill="#1c1c1b"/><path d="M64.616,19.536a1.683,1.683,0,0,1-.463.961L56.039,31.038H62.19c.48,0,.708.191.62.673l-.349,2.051c-.087.479-.275.7-.756.7H51.453c-.512,0-.708-.228-.621-.7l.23-1.539a1.935,1.935,0,0,1,.433-.9L59.7,20.755h-5.9c-.48,0-.677-.223-.621-.7L53.537,18a.7.7,0,0,1,.789-.7h9.933c.512,0,.708.223.62.7Z" fill="#1c1c1b"/><path d="M74.777,34.465a.988.988,0,0,1-.972-.576l-3.581-6.983-1.066,6.856c-.088.479-.275.7-.789.7H65.838c-.479,0-.707-.224-.652-.7l3.38-21.177a.694.694,0,0,1,.788-.673h2.529c.48,0,.742.193.654.673L70.89,22.836l4.941-5.061a1.272,1.272,0,0,1,1.08-.48h3.2c.575,0,.647.513.206.929l-6.834,6.759L78.126,33.6a.557.557,0,0,1-.5.864Z" fill="#1c1c1b"/><path d="M89.753,26.392c-3.938.225-6.1.961-6.053,3.75.018.992.637,1.664,1.887,1.664a3.883,3.883,0,0,0,3.877-3.588Zm2.627,7.369c-.088.479-.276.7-.758.7H89.476c-.479,0-.678-.224-.65-.607l.135-1.475a5.674,5.674,0,0,1-4.7,2.309c-2.723,0-4.354-1.6-4.4-4.037-.1-5.7,4.979-6.567,10.262-6.76l.174-1.059c.322-1.761-.4-2.562-2.512-2.562a12.207,12.207,0,0,0-4.151.8c-.413.128-.771-.032-.743-.48l-.1-1.858a.9.9,0,0,1,.625-.833,14.7,14.7,0,0,1,5.111-.9c3.844,0,5.662,1.441,5.713,4.261a8.258,8.258,0,0,1-.1,1.474Z" fill="#1c1c1b"/><path d="M102.621,14.8c-.088.512-.274.736-.756.736h-2.66c-.479,0-.677-.224-.621-.736l.349-2.115c.088-.48.308-.7.789-.7h2.627c.512,0,.708.224.621.7ZM99.555,33.761c-.089.479-.276.7-.757.7H96.235c-.479,0-.708-.224-.621-.7L98.127,18c.088-.481.31-.7.789-.7h2.563c.479,0,.676.223.588.7Z" fill="#1c1c1b"/><path d="M112.962,26.375c-3.938.224-6.1.96-6.053,3.75.018.991.637,1.664,1.887,1.664a3.883,3.883,0,0,0,3.879-3.587Zm2.627,7.368c-.088.479-.275.7-.756.7h-2.146c-.48,0-.678-.226-.65-.608l.135-1.474a5.676,5.676,0,0,1-4.7,2.308c-2.722,0-4.353-1.6-4.4-4.037-.1-5.7,4.979-6.567,10.263-6.759l.174-1.059c.322-1.76-.4-2.562-2.512-2.562a12.222,12.222,0,0,0-4.151.8c-.413.128-.769-.033-.744-.481l-.1-1.857a.9.9,0,0,1,.625-.833,14.7,14.7,0,0,1,5.111-.9c3.844,0,5.663,1.441,5.713,4.261a8.076,8.076,0,0,1-.1,1.474Z" fill="#1c1c1b"/><path d="M32.874,46.486a2.806,2.806,0,0,1-.173.76,2.119,2.119,0,0,1-.439.682,3.53,3.53,0,0,1-.792.607,6.255,6.255,0,0,1-1.244.523,14.354,14.354,0,0,1-1.779.43q-1.029.191-2.4.336c-.025.137-.047.271-.065.4s-.033.265-.044.4a3.32,3.32,0,0,0,.458,2.268,2.184,2.184,0,0,0,1.909.816,3.654,3.654,0,0,0,1.7-.4,4.154,4.154,0,0,0,.607-.368c.176-.13.334-.253.475-.371s.261-.213.361-.285a.467.467,0,0,1,.268-.112.239.239,0,0,1,.2.1l.191.253a10.446,10.446,0,0,1-1,.869,6.09,6.09,0,0,1-.967.6,4.616,4.616,0,0,1-.989.346,5.126,5.126,0,0,1-1.07.111,3.442,3.442,0,0,1-1.413-.27,2.554,2.554,0,0,1-.989-.758,3,3,0,0,1-.547-1.2,5.041,5.041,0,0,1-.085-1.579,7.981,7.981,0,0,1,.832-2.892,7.408,7.408,0,0,1,.822-1.274,5.821,5.821,0,0,1,1.059-1.03,4.976,4.976,0,0,1,1.267-.689,4.173,4.173,0,0,1,1.453-.254,3.03,3.03,0,0,1,1.185.2,2.208,2.208,0,0,1,.754.5,1.615,1.615,0,0,1,.387.643,1.747,1.747,0,0,1,.076.64m-2.514-1.3a3.139,3.139,0,0,0-1.436.33,4.452,4.452,0,0,0-1.187.882,5.733,5.733,0,0,0-.919,1.274,7.485,7.485,0,0,0-.614,1.514c.831-.092,1.551-.2,2.159-.316a15.063,15.063,0,0,0,1.551-.379,5.187,5.187,0,0,0,1.045-.434,2.851,2.851,0,0,0,.641-.482,1.48,1.48,0,0,0,.332-.512,2.118,2.118,0,0,0,.121-.543A1.177,1.177,0,0,0,32,46.072a1.028,1.028,0,0,0-.269-.434,1.538,1.538,0,0,0-.53-.324,2.262,2.262,0,0,0-.84-.133" fill="#d20a11"/><path d="M33.735,54.32l2.953-14.16h.905L35.97,47.906a10,10,0,0,1,.97-1.4,7.683,7.683,0,0,1,1.077-1.074,4.7,4.7,0,0,1,1.146-.7,3.01,3.01,0,0,1,1.175-.25,2.272,2.272,0,0,1,1.087.244,1.95,1.95,0,0,1,.738.688,2.9,2.9,0,0,1,.392,1.074,5.413,5.413,0,0,1,.042,1.41,7.845,7.845,0,0,1-.289,1.523,9.407,9.407,0,0,1-.573,1.5,8.812,8.812,0,0,1-.821,1.367,6.39,6.39,0,0,1-1.036,1.119,4.922,4.922,0,0,1-1.22.754,3.37,3.37,0,0,1-1.353.276,2.892,2.892,0,0,1-1.475-.375,2.435,2.435,0,0,1-.993-1.113l-.276,1.052a.528.528,0,0,1-.118.237.346.346,0,0,1-.25.072h-.458Zm6.234-9.081a2.415,2.415,0,0,0-1.14.312,4.918,4.918,0,0,0-1.157.877,8.235,8.235,0,0,0-1.092,1.361,12.678,12.678,0,0,0-.958,1.771l-.583,2.764a2.411,2.411,0,0,0,.416.646,2.161,2.161,0,0,0,1.148.67,2.9,2.9,0,0,0,1.825-.174,3.957,3.957,0,0,0,1.022-.677,5.453,5.453,0,0,0,.856-1,7.831,7.831,0,0,0,.669-1.2,8.656,8.656,0,0,0,.464-1.3,7.366,7.366,0,0,0,.235-1.3,3.376,3.376,0,0,0-.319-2.028,1.5,1.5,0,0,0-1.386-.723" fill="#d20a11"/><path d="M46.756,44.636,44.732,54.32h-.905l2.024-9.684Zm1-3.337a.828.828,0,0,1-.1.326,1.1,1.1,0,0,1-.208.268,1,1,0,0,1-.284.186.748.748,0,0,1-.313.067.685.685,0,0,1-.306-.067.718.718,0,0,1-.242-.186.85.85,0,0,1-.156-.268.754.754,0,0,1-.04-.326.862.862,0,0,1,.1-.332,1.09,1.09,0,0,1,.2-.275.863.863,0,0,1,.274-.189.756.756,0,0,1,.317-.068.693.693,0,0,1,.3.068.809.809,0,0,1,.251.186.78.78,0,0,1,.161.277.8.8,0,0,1,.038.333" fill="#d20a11"/><path d="M55.9,45.027a.823.823,0,0,1-.208.368l-7.246,8.194h5.439l-.152.729H47.173l.071-.369a.586.586,0,0,1,.074-.174,1.093,1.093,0,0,1,.142-.188l7.27-8.224H49.34l.16-.729h6.491Z" fill="#d20a11"/><path d="M60.082,40.159l-1.816,8.632h.36a.792.792,0,0,0,.286-.044.959.959,0,0,0,.269-.18l4.333-3.688a1.919,1.919,0,0,1,.239-.175.51.51,0,0,1,.278-.067h.8L60.046,48.7c-.078.064-.149.125-.216.182a1.219,1.219,0,0,1-.211.142.644.644,0,0,1,.207.186c.052.07.1.148.155.232L63.1,54.323h-.778a.438.438,0,0,1-.219-.049.475.475,0,0,1-.159-.175l-2.831-4.358a.705.705,0,0,0-.242-.237.86.86,0,0,0-.384-.063H58.13l-1.02,4.886H56.2l2.972-14.16h.906Z" fill="#d20a11"/><path d="M70.908,54.32H70.46a.294.294,0,0,1-.25-.088.312.312,0,0,1-.056-.215l.589-3.047a10.764,10.764,0,0,1-.938,1.416,7.412,7.412,0,0,1-1.04,1.1,4.515,4.515,0,0,1-1.118.711,2.864,2.864,0,0,1-1.17.254,2.172,2.172,0,0,1-1.05-.238,1.863,1.863,0,0,1-.705-.678,2.891,2.891,0,0,1-.37-1.061,5.676,5.676,0,0,1-.032-1.4,6.788,6.788,0,0,1,.36-1.66,7.62,7.62,0,0,1,.742-1.541,7.953,7.953,0,0,1,1.057-1.344,7.332,7.332,0,0,1,1.3-1.063,6.34,6.34,0,0,1,1.469-.7,5.015,5.015,0,0,1,1.567-.254,5.3,5.3,0,0,1,1.081.1,3.686,3.686,0,0,1,.975.354Zm-4.059-.643a2.308,2.308,0,0,0,1.123-.313,4.514,4.514,0,0,0,1.1-.881,8.953,8.953,0,0,0,1.039-1.371,13.546,13.546,0,0,0,.93-1.776l.832-3.94a3.689,3.689,0,0,0-1.229-.194,3.875,3.875,0,0,0-1.284.221,5.19,5.19,0,0,0-1.206.607,6.191,6.191,0,0,0-1.074.924,7.233,7.233,0,0,0-.887,1.174,6.86,6.86,0,0,0-.628,1.348,6.281,6.281,0,0,0-.309,1.451,3.723,3.723,0,0,0,.267,2.027,1.364,1.364,0,0,0,1.322.723" fill="#d20a11"/><path d="M77.087,44.636,75.064,54.32h-.9l2.023-9.684Zm1-3.337a.847.847,0,0,1-.1.326,1.118,1.118,0,0,1-.207.268,1.037,1.037,0,0,1-.285.186.745.745,0,0,1-.313.067.7.7,0,0,1-.548-.253.87.87,0,0,1-.156-.268.74.74,0,0,1-.04-.326.882.882,0,0,1,.1-.332,1.06,1.06,0,0,1,.2-.275.906.906,0,0,1,.273-.189.759.759,0,0,1,.316-.068.7.7,0,0,1,.3.068.809.809,0,0,1,.251.186.759.759,0,0,1,.158.277.7.7,0,0,1,.044.333" fill="#d20a11"/><path d="M84.873,54.32h-.447a.3.3,0,0,1-.25-.088.312.312,0,0,1-.055-.215l.588-3.047a10.862,10.862,0,0,1-.937,1.416,7.26,7.26,0,0,1-1.04,1.1,4.51,4.51,0,0,1-1.117.711,2.872,2.872,0,0,1-1.171.254,2.172,2.172,0,0,1-1.05-.238,1.863,1.863,0,0,1-.705-.678,2.891,2.891,0,0,1-.37-1.061,5.726,5.726,0,0,1-.032-1.4,6.74,6.74,0,0,1,.359-1.66,7.623,7.623,0,0,1,.743-1.541,8,8,0,0,1,1.056-1.344,7.418,7.418,0,0,1,1.3-1.063,6.326,6.326,0,0,1,1.467-.7,5.026,5.026,0,0,1,1.568-.254,5.3,5.3,0,0,1,1.081.1,3.642,3.642,0,0,1,.974.354Zm-4.06-.643a2.3,2.3,0,0,0,1.122-.313,4.5,4.5,0,0,0,1.1-.881,8.894,8.894,0,0,0,1.041-1.371,13.67,13.67,0,0,0,.931-1.776l.829-3.94a3.676,3.676,0,0,0-1.229-.194,3.864,3.864,0,0,0-1.283.221,5.138,5.138,0,0,0-1.207.607,6.191,6.191,0,0,0-1.074.924,6.985,6.985,0,0,0-.885,1.174,6.807,6.807,0,0,0-.629,1.348,6.177,6.177,0,0,0-.308,1.451,3.7,3.7,0,0,0,.267,2.027,1.364,1.364,0,0,0,1.321.723" fill="#d20a11"/></svg>